<?xml version="1.0" encoding="UTF-8" standalone="no"?>
<svg
   xmlns:sketch="http://www.bohemiancoding.com/sketch/ns"
   xmlns:dc="http://purl.org/dc/elements/1.1/"
   xmlns:cc="http://creativecommons.org/ns#"
   xmlns:rdf="http://www.w3.org/1999/02/22-rdf-syntax-ns#"
   xmlns:svg="http://www.w3.org/2000/svg"
   xmlns="http://www.w3.org/2000/svg"
   xmlns:sodipodi="http://sodipodi.sourceforge.net/DTD/sodipodi-0.dtd"
   xmlns:inkscape="http://www.inkscape.org/namespaces/inkscape"
   width="100"
   height="100"
   viewBox="0 0 100 100"
   version="1.1"
   id="svg2"
   inkscape:version="0.48.5 r10040"
   sodipodi:docname="black and white burger.svg"
   inkscape:export-filename="/Users/simon/Downloads/burger.png"
   inkscape:export-xdpi="921.59998"
   inkscape:export-ydpi="921.59998">
  <metadata
     id="metadata22">
    <rdf:RDF>
      <cc:Work
         rdf:about="">
        <dc:format>image/svg+xml</dc:format>
        <dc:type
           rdf:resource="http://purl.org/dc/dcmitype/StillImage" />
        <dc:title>black and white burger</dc:title>
      </cc:Work>
    </rdf:RDF>
  </metadata>
  <sodipodi:namedview
     pagecolor="#ffffff"
     bordercolor="#666666"
     borderopacity="1"
     objecttolerance="10"
     gridtolerance="10"
     guidetolerance="10"
     inkscape:pageopacity="0"
     inkscape:pageshadow="2"
     inkscape:window-width="1456"
     inkscape:window-height="977"
     id="namedview20"
     showgrid="false"
     inkscape:zoom="4.916429"
     inkscape:cx="13.575071"
     inkscape:cy="31.630742"
     inkscape:window-x="976"
     inkscape:window-y="23"
     inkscape:window-maximized="0"
     inkscape:current-layer="display2-2" />
  <!-- Generator: Sketch 3.2.2 (9983) - http://www.bohemiancoding.com/sketch -->
  <title
     id="title4">black and white burger</title>
  <desc
     id="desc6">Created with Sketch.</desc>
  <defs
     id="defs8" />
  <g
     id="Page-1"
     sketch:type="MSPage"
     style="fill:#ffdd55;fill-rule:evenodd;stroke:none"
     transform="translate(0,39)">
    <g
       id="display2-2"
       sketch:type="MSLayerGroup"
       transform="translate(-256,-64)"
       style="fill:#ffdd55">
      <g
         id="black-and-white-burger"
         transform="matrix(1.323126,0,0,1.3514035,257.84865,34.507048)"
         sketch:type="MSShapeGroup"
         style="fill:#ffdd55">
        <g
           id="BURGER-3"
           style="fill:#ffdd55">
          <path
             d="m 64.820424,36.880241 c 0.02489,0.257426 -2.672437,-3.577738 5.077881,1.299469 L 73,40.131579 l 0,0 -73,0 1.6800847,-3.502717 C 2.2924988,35.352074 39.559384,40.627113 39.584347,40.369648 z M 73,46.552632 l 0,5.638532 c 0,4.421705 -3.582761,8.006204 -8.003611,8.006204 l -56.9927781,0 C 3.5833386,60.197368 0,56.620392 0,52.191164 l 0,-5.638532 z"
             id="Rectangle-51"
             style="fill:#ffdd55"
             inkscape:connector-curvature="0"
             sodipodi:nodetypes="cscccscccsssscc" />
          <path
             d="m 23.876168,7.7217827 c -0.24001,0.1496945 -0.522833,0.2477405 -0.830594,0.2746661 -0.965512,0.084471 -1.810852,-0.5630171 -1.888121,-1.4462058 -0.07727,-0.8831887 0.642794,-1.6676322 1.608305,-1.7521035 0.378984,-0.033157 0.739452,0.046462 1.042223,0.2088427 L 26.590959,6.057123 23.876168,7.7217827 z M 47.217931,5.2029196 c 0.276057,0.031722 0.553508,0.1280793 0.807725,0.2931699 0.81284,0.527864 1.080344,1.5585355 0.597487,2.3020692 -0.482856,0.7435338 -1.533225,0.9183687 -2.346064,0.3905047 -0.319282,-0.207344 -0.554424,-0.4922664 -0.693,-0.8068925 l -1.546349,-2.5406703 3.180437,0.3614731 -2.36e-4,3.459e-4 0,0 z M 15.38702,11.89011 c 0.258515,0.102084 0.501645,0.266994 0.704523,0.492313 0.648521,0.720256 0.640153,1.785043 -0.01869,2.378269 -0.658844,0.593226 -1.718674,0.490248 -2.367195,-0.230007 -0.254493,-0.282644 -0.407829,-0.618343 -0.460396,-0.957781 l -0.836401,-2.855408 2.97851,1.172314 -3.5e-4,3e-4 0,0 z m 22.374528,1.764692 c -0.04717,0.285572 -0.164671,0.56895 -0.355215,0.82181 -0.583279,0.774037 -1.6301,0.968993 -2.33814,0.435447 -0.70804,-0.533547 -0.809179,-1.593553 -0.2259,-2.36759 0.22799,-0.302553 0.526802,-0.516632 0.848522,-0.633312 l 2.646454,-1.367475 -0.575721,3.11112 0,0 z m 20.862258,0.458752 c -0.2118,0.192816 -0.476311,0.341335 -0.778729,0.422368 -0.936175,0.250847 -1.881108,-0.240012 -2.110568,-1.096366 -0.229459,-0.856353 0.343447,-1.753917 1.279622,-2.004764 0.367157,-0.09838 0.735662,-0.08268 1.061825,0.02442 l 2.923838,0.551076 -2.375988,2.103269 0,0 z M 72.94251,21.671053 C 72.980667,21.286798 73,20.899719 73,20.510103 73,9.1826861 56.658393,0 36.5,0 16.341607,0 0,9.1826861 0,20.510103 c 0,0.389616 0.01933332,0.776695 0.05749028,1.16095 l 72.88501972,0 0,0 z"
             id="Oval-30"
             style="fill:#ffdd55"
             inkscape:connector-curvature="0" />
          <path
             d="m 54.369939,48.169881 c -3.057949,2.109343 -8.198227,5.483879 -9.186775,5.048736 -1.425409,-0.627443 2.315006,-6.665985 2.315006,-6.665985 l 7.961561,0 6.3095,0 c 0,0 -2.808729,6.248612 -5.100694,6.248612 -1.528736,0 -2.09259,-2.779924 -2.298598,-4.631363 z"
             id="Triangle-12"
             style="fill:#ffdd55"
             inkscape:connector-curvature="0" />
          <polygon
             id="Triangle-11"
             transform="matrix(1,0,0,-1,0,100.16513)"
             points="17.150112,46.552632 29.681319,53.612497 8.8241758,53.612497 "
             style="fill:#ffdd55" />
        </g>
      </g>
      <rect
         style="fill:#ffffff;fill-opacity:1"
         id="rect3001"
         width="96.613426"
         height="15.893307"
         x="257.03101"
         y="76.626862" />
      <text
         xml:space="preserve"
         style="font-size:10.69752025999999923px;font-style:normal;font-weight:normal;line-height:125%;letter-spacing:0px;word-spacing:0px;fill:#784421;fill-opacity:1;stroke:none;font-family:Sans"
         x="260.36908"
         y="87.399529"
         id="text3003"
         sodipodi:linespacing="125%"
         transform="scale(0.9894824,1.0106294)"><tspan
           sodipodi:role="line"
           id="tspan3005"
           x="260.36908"
           y="87.399529"
           style="font-size:21.39504051000000118px;font-weight:bold;fill:#784421;-inkscape-font-specification:Sans Bold">AACHEN</tspan></text>
    </g>
  </g>
</svg>
